<svg width="28" height="28" viewBox="0 0 28 28" fill="none" xmlns="http://www.w3.org/2000/svg">
<path d="M4.39286 7H17.6071C19.481 7 21 8.51903 21 10.3929V23.6071C21 25.481 19.481 27 17.6071 27H4.39286C2.51903 27 1 25.481 1 23.6071V10.3929C1 8.51903 2.51903 7 4.39286 7Z" stroke="white" stroke-width="1.4" stroke-linejoin="round"/>
<path d="M7.02976 5.7619L7 4.33333C7.00251 3.45005 7.35451 2.60366 7.97909 1.97909C8.60366 1.35451 9.45005 1.00251 10.3333 1H23.1905C24.1999 1.00298 25.1671 1.4053 25.8809 2.11908C26.5947 2.83286 26.997 3.80009 27 4.80952V17.6667C26.9975 18.5499 26.6455 19.3963 26.0209 20.0209C25.3963 20.6455 24.5499 20.9975 23.6667 21H22.2381" stroke="white" stroke-width="1.4" stroke-linecap="round" stroke-linejoin="round"/>
</svg>
