<svg width="31" height="31" viewBox="0 0 31 31" fill="none" xmlns="http://www.w3.org/2000/svg">
<path d="M26.0289 27.1125C25.9043 27.1128 25.7809 27.0883 25.6658 27.0406C25.5507 26.9928 25.4462 26.9228 25.3583 26.8345L4.49018 5.96633C4.3198 5.787 4.22622 5.5482 4.22939 5.30085C4.23255 5.0535 4.33222 4.81718 4.50713 4.64227C4.68205 4.46735 4.91837 4.36769 5.16572 4.36452C5.41306 4.36135 5.65186 4.45493 5.8312 4.62531L26.6994 25.4935C26.8319 25.6261 26.9222 25.7951 26.9588 25.9791C26.9953 26.163 26.9765 26.3537 26.9048 26.5269C26.833 26.7002 26.7115 26.8483 26.5556 26.9525C26.3997 27.0568 26.2164 27.1125 26.0289 27.1125Z" fill="#FFBD21"/>
<path d="M15.5747 23.3183C13.115 23.3183 10.743 22.5903 8.52456 21.1544C6.50473 19.8502 4.68647 17.9821 3.26602 15.7595V15.7548C4.44815 14.061 5.74293 12.6287 7.13374 11.4739C7.14632 11.4633 7.15659 11.4503 7.16388 11.4356C7.17118 11.421 7.17535 11.4049 7.17613 11.3885C7.17691 11.3722 7.17428 11.3558 7.16841 11.3405C7.16255 11.3252 7.15357 11.3112 7.14204 11.2996L5.96109 10.1204C5.94011 10.0992 5.91192 10.0868 5.88215 10.0854C5.85238 10.0841 5.82321 10.0941 5.80043 10.1133C4.32306 11.3583 2.95181 12.8854 1.70505 14.6735C1.49055 14.9813 1.37242 15.346 1.36566 15.7212C1.35891 16.0963 1.46383 16.465 1.66711 16.7804C3.23282 19.2307 5.2479 21.2944 7.4936 22.7474C10.0221 24.3855 12.7432 25.2154 15.5747 25.2154C17.103 25.2107 18.6205 24.9588 20.0685 24.4696C20.0876 24.4632 20.1047 24.4519 20.1182 24.437C20.1318 24.422 20.1413 24.4039 20.1459 24.3842C20.1504 24.3646 20.1499 24.3441 20.1443 24.3247C20.1388 24.3053 20.1284 24.2876 20.1141 24.2734L18.8347 22.994C18.8053 22.9653 18.7689 22.9447 18.7291 22.9343C18.6892 22.9239 18.6474 22.9241 18.6077 22.9348C17.6169 23.1899 16.5978 23.3188 15.5747 23.3183Z" fill="#FFBD21"/>
<path d="M29.5172 14.6983C27.9485 12.2724 25.9133 10.2117 23.632 8.73847C21.1083 7.10696 18.3219 6.24437 15.5747 6.24437C14.0625 6.24705 12.5616 6.50418 11.1348 7.00499C11.1158 7.01161 11.0988 7.02295 11.0854 7.03796C11.072 7.05297 11.0626 7.07114 11.0582 7.09077C11.0537 7.1104 11.0543 7.13084 11.06 7.15017C11.0656 7.16949 11.0761 7.18706 11.0904 7.20122L12.368 8.4788C12.3977 8.50804 12.4346 8.52892 12.475 8.53933C12.5154 8.54973 12.5578 8.54931 12.598 8.53809C13.5684 8.27556 14.5693 8.14221 15.5747 8.14148C17.9869 8.14148 20.3518 8.87838 22.6028 10.335C24.6606 11.663 26.5002 13.5293 27.9242 15.7299C27.9253 15.7313 27.9259 15.7329 27.9259 15.7346C27.9259 15.7364 27.9253 15.738 27.9242 15.7394C26.8906 17.3667 25.6078 18.8217 24.1229 20.0512C24.1102 20.0616 24.0998 20.0746 24.0924 20.0894C24.085 20.1041 24.0807 20.1202 24.0799 20.1366C24.0791 20.1531 24.0817 20.1695 24.0875 20.1849C24.0934 20.2003 24.1024 20.2143 24.114 20.226L25.2938 21.4052C25.3147 21.4263 25.3427 21.4388 25.3723 21.4402C25.4019 21.4416 25.431 21.4319 25.4538 21.4129C27.0391 20.0781 28.4114 18.5092 29.5231 16.7603C29.7196 16.4521 29.8236 16.0939 29.8225 15.7284C29.8214 15.3629 29.7155 15.0054 29.5172 14.6983Z" fill="#FFBD21"/>
<path d="M15.5948 10.0386C15.1685 10.0384 14.7436 10.0861 14.3279 10.1809C14.3069 10.1852 14.2875 10.1952 14.2717 10.2097C14.256 10.2242 14.2444 10.2428 14.2383 10.2633C14.2322 10.2839 14.2319 10.3057 14.2372 10.3265C14.2425 10.3472 14.2534 10.3662 14.2686 10.3813L20.9435 17.0543C20.9586 17.0696 20.9775 17.0804 20.9983 17.0858C21.019 17.0911 21.0409 17.0907 21.0614 17.0846C21.082 17.0786 21.1005 17.067 21.115 17.0512C21.1295 17.0355 21.1395 17.016 21.1439 16.995C21.3339 16.1615 21.3337 15.2959 21.1433 14.4625C20.953 13.629 20.5773 12.8492 20.0441 12.1809C19.511 11.5125 18.8342 10.9729 18.0639 10.602C17.2937 10.2312 16.4497 10.0386 15.5948 10.0386Z" fill="#FFBD21"/>
<path d="M10.2462 14.4055C10.2311 14.3902 10.2122 14.3794 10.1914 14.374C10.1707 14.3687 10.1488 14.3691 10.1283 14.3752C10.1077 14.3813 10.0892 14.3928 10.0747 14.4086C10.0602 14.4244 10.0502 14.4438 10.0458 14.4648C9.83083 15.404 9.85783 16.3825 10.1243 17.3085C10.3907 18.2345 10.8879 19.0777 11.5693 19.759C12.2506 20.4404 13.0938 20.9376 14.0198 21.204C14.9458 21.4705 15.9243 21.4975 16.8636 21.2825C16.8846 21.2781 16.904 21.2682 16.9197 21.2536C16.9355 21.2391 16.9471 21.2206 16.9531 21.2C16.9592 21.1795 16.9596 21.1576 16.9543 21.1369C16.949 21.1161 16.9381 21.0972 16.9228 21.0821L10.2462 14.4055Z" fill="#FFBD21"/>
</svg>
