<svg width="17" height="21" viewBox="0 0 17 21" fill="none" xmlns="http://www.w3.org/2000/svg">
<path d="M11.5 5.125C11.5 5.125 12.6419 4.5625 8.5 4.5625C7.01664 4.5625 5.56659 5.00237 4.33323 5.82648C3.09986 6.65059 2.13856 7.82193 1.57091 9.19237C1.00325 10.5628 0.854725 12.0708 1.14411 13.5257C1.4335 14.9805 2.14781 16.3169 3.1967 17.3658C4.2456 18.4147 5.58197 19.129 7.03683 19.4184C8.49168 19.7078 9.99968 19.5593 11.3701 18.9916C12.7406 18.4239 13.9119 17.4626 14.736 16.2293C15.5601 14.9959 16 13.5459 16 12.0625" stroke="#FFBD21" stroke-width="1.4" stroke-miterlimit="10" stroke-linecap="round"/>
<path d="M8.5 1L12.25 4.75L8.5 8.5" stroke="#FFBD21" stroke-width="1.4" stroke-linecap="round" stroke-linejoin="round"/>
</svg>
